
<svg xmlns="http://www.w3.org/2000/svg" xmlns:xlink="http://www.w3.org/1999/xlink" viewBox="0 0 41 41">

    <!-- Linkedin -->

    <symbol id="icon-linkedin">
        <g stroke="none" stroke-width="1" fill="none" fill-rule="evenodd">
            <g fill="#FFFFFF" fill-rule="nonzero">
                <path d="M11.857422,27.9309896 L15.617188,27.9309896 L15.617188,16.6354167 L11.857422,16.6354167 L11.857422,27.9309896 Z M15.861328,13.1523438 C15.850477,12.5881048 15.655167,12.1215296 15.275391,11.7526042 C14.895614,11.3836787 14.391062,11.1992188 13.761719,11.1992188 C13.132375,11.1992188 12.619685,11.3836787 12.223633,11.7526042 C11.82758,12.1215296 11.629557,12.5881048 11.629557,13.1523438 C11.629557,13.7057319 11.822155,14.1695945 12.207357,14.5439453 C12.592558,14.9182961 13.094398,15.1054688 13.712891,15.1054688 L13.729167,15.1054688 C14.369361,15.1054688 14.884764,14.9182961 15.275391,14.5439453 C15.666018,14.1695945 15.861328,13.7057319 15.861328,13.1523438 Z M21.44401,18.2277823 L21.44401,16.6354167 L17.684245,16.6354167 C17.716797,17.3515661 17.716797,21.1167194 17.684245,27.9309896 L21.44401,27.9309896 L21.44401,21.6158854 C21.44401,21.203557 21.481987,20.8997406 21.557943,20.7044271 C21.720704,20.3246509 21.964842,20.0018459 22.290365,19.7360026 C22.615887,19.4701593 23.017359,19.3372396 23.494792,19.3372396 C24.753479,19.3372396 25.382812,20.1890106 25.382812,21.8925781 L25.382812,27.9309896 L29.142578,27.9309896 L29.142578,21.453125 C29.142578,19.7821097 28.746532,18.5180164 27.954427,17.6608073 C27.162322,16.8035981 26.115241,16.375 24.813151,16.375 C23.357546,16.375 22.23451,16.992588 21.44401,18.2277823 L21.44401,18.2277823 Z M20.5,0 C31.821837,0 41,9.1781626 41,20.5 C41,31.8218374 31.821837,41 20.5,41 C9.178163,41 0,31.8218374 0,20.5 C0,9.1781626 9.178163,0 20.5,0 Z"></path>
            </g>
        </g>
    </symbol>

    <symbol id="icon-twitter">
        <g stroke="none" stroke-width="1" fill="none" fill-rule="evenodd">
            <g fill="#FFFFFF" fill-rule="nonzero">
                <path d="M20.5,0 C31.8218374,0 41,9.17816263 41,20.5 C41,31.8218374 31.8218374,41 20.5,41 C9.1781626,41 0,31.8218374 0,20.5 C0,9.17816263 9.1781626,0 20.5,0 Z M25.7319004,13 C23.3209088,13 21.3662442,14.9396118 21.3662442,17.3319774 C21.3662442,17.6715041 21.4049266,18.0021487 21.4793337,18.3191999 C17.8511326,18.1385463 14.6344276,16.4138806 12.4812923,13.7929755 C12.105521,14.4327933 11.8902386,15.1769561 11.8902386,15.9708585 C11.8902386,17.4737815 12.6610056,18.7997583 13.8323722,19.5765917 C13.1167101,19.5541162 12.4436218,19.3592514 11.8549809,19.0347856 L11.8546696,19.0892365 L11.8546696,19.0892365 C11.8546696,21.1881849 13.359467,22.9391107 15.3565498,23.3370273 C14.9901961,23.4360431 14.6045402,23.4889493 14.2063534,23.4889493 C13.9250698,23.4889493 13.6515693,23.4618397 13.3850736,23.4112505 C13.9405583,25.1323635 15.5527634,26.3848122 17.4630639,26.4197999 C15.9690072,27.5816515 14.0866483,28.2742211 12.0413877,28.2742211 C11.6890438,28.2742211 11.3415254,28.2537537 11,28.2137458 C12.9319377,29.4428694 15.2266487,30.1599998 17.6919668,30.1599998 C25.7217044,30.1599998 30.1126558,23.5589246 30.1126558,17.8343162 C30.1126558,17.6464798 30.1084529,17.4596475 30.1000471,17.2738964 C30.9529265,16.6631191 31.6931057,15.9001109 32.2783998,15.0313674 C31.4954911,15.3759144 30.6541307,15.6087791 29.7710526,15.7135102 C30.6724212,15.1773423 31.3645782,14.3283711 31.6905372,13.3168195 C30.8470754,13.8132112 29.9127841,14.1737459 28.9184067,14.3680701 C28.1220331,13.5261273 26.9874808,13 25.7319004,13 Z"></path>
            </g>
        </g>
    </symbol>

    <symbol id="icon-instagram">
        <g stroke="none" stroke-width="1" fill="none" fill-rule="evenodd">
            <g fill="#FFFFFF" fill-rule="nonzero">
                <path d="M20.5,41 C31.8218374,41 41,31.8218374 41,20.5 C41,9.1781626 31.8218374,0 20.5,0 C9.1781626,0 0,9.1781626 0,20.5 C0,31.8218374 9.1781626,41 20.5,41 Z M20.4728318,30.9977989 C18.3995638,30.9977989 16.3262958,31.0037305 14.2530803,30.9961192 C12.1831717,30.9885079 10.4944061,29.6175832 10.089222,27.6172834 C10.0289089,27.3196557 10.0051302,27.0099024 10.0047627,26.7056607 C9.9994086,22.5679529 9.9985687,18.4302452 10.0022431,14.2925374 C10.0041328,12.1981726 11.3604155,10.5052115 13.3690136,10.0926271 C13.6748308,10.0297946 13.9936134,10.0053859 14.3064119,10.0049135 C18.4354157,9.9993494 22.5644194,9.9986145 26.6933706,10.0021839 C29.1581223,10.0042836 30.9939175,11.8336705 30.9965946,14.2933773 C31.0011089,18.4310851 31.0011614,22.5688453 30.9965946,26.706553 C30.993865,29.1658399 29.1575449,30.9929172 26.6925307,30.9971165 C24.6193152,31.0006334 22.5460472,30.9978514 20.4728318,30.9977989 L20.4728318,30.9977989 Z M26.7375162,18.9293359 C27.1553508,20.9121035 26.8489563,22.7393382 25.6224332,24.3591784 C24.3936531,25.9819056 22.742209,26.8562593 20.7099371,26.9394061 C18.8717799,27.0146266 17.2629592,26.395015 15.9599031,25.0958989 C14.2403773,23.3815737 13.7137797,21.2949776 14.1971765,18.9309107 L12.4052645,18.9309107 L12.4052645,19.2037623 C12.4052645,21.8368491 12.420907,24.4700933 12.3964707,27.1029176 C12.3883096,27.9888719 13.0164263,28.5809253 13.8641686,28.5785181 C18.2642924,28.5659652 22.6644687,28.5730516 27.064645,28.5723692 C27.9985788,28.5722642 28.5345199,28.0401037 28.5347824,27.1136784 C28.5355173,24.4805916 28.5351944,21.8475049 28.5351944,19.2144181 L28.5351944,18.9293359 L26.7375162,18.9293359 L26.7375162,18.9293359 Z M24.5181593,20.4919602 C24.5071928,18.2479416 22.68809,16.4431208 20.4488955,16.4546139 C18.2215116,16.4661122 16.4073431,18.28983 16.4176921,20.5070778 C16.4282873,22.7471595 18.2522193,24.5553922 20.4903115,24.5444712 C22.7185353,24.5335557 24.5289244,22.712095 24.5181593,20.4919602 L24.5181593,20.4919602 Z M28.534205,14.4919533 C28.534205,14.2471322 28.5386668,14.0021536 28.5333651,13.757385 C28.5179325,13.0406638 27.962412,12.4792655 27.2477363,12.4666675 C26.7581979,12.4580063 26.2682397,12.4580063 25.7786488,12.466615 C25.0664403,12.4791605 24.5038333,13.0431309 24.4910778,13.7578574 C24.4823117,14.2473946 24.4813143,14.7374568 24.4917602,15.2269415 C24.5066679,15.9241883 25.0700622,16.4909932 25.7659458,16.5068982 C26.2641453,16.5182889 26.7630272,16.5184464 27.2612267,16.5069507 C27.9605748,16.4907833 28.5156229,15.9263929 28.5329452,15.2265216 C28.5389817,14.9818055 28.53389,14.7368269 28.534205,14.4919533 L28.534205,14.4919533 Z" ></path>
            </g>
        </g>
    </symbol>

    <symbol id="icon-facebook">
        <g stroke="none" stroke-width="1" fill="none" fill-rule="evenodd">
            <g fill="#FFFFFF" fill-rule="nonzero">
                <path d="M20.5,41 C31.8218374,41 41,31.8218374 41,20.5 C41,9.1781626 31.8218374,0 20.5,0 C9.17816263,0 0,9.1781626 0,20.5 C0,31.8218374 9.17816263,41 20.5,41 Z M21.2156263,14.8674892 L21.2156263,17.6069607 L25.0595005,17.6069607 L25.0595005,19.9435687 L21.2156263,19.9435687 L21.2156263,29.2900009 L18.3531668,29.2900009 L18.3531668,19.9435687 L15,19.9435687 L15,17.6069607 L18.3531668,17.6069607 L18.3531668,14.384053 C18.3531668,12.5308811 19.8252889,11 21.6245491,11 L25.0595005,11 L25.0595005,13.4977534 L22.4423947,13.4977534 C21.7881182,13.4977534 21.2156263,14.142335 21.2156263,14.8674892 Z"></path>
            </g>
        </g>
    </symbol>

    <symbol id="icon-website">
        <g stroke="none" stroke-width="1" fill="none" fill-rule="evenodd">
            <g fill="#FFFFFF" fill-rule="nonzero">
                <path d="M20.5,41 C31.8218374,41 41,31.8218374 41,20.5 C41,9.17816263 31.8218374,0 20.5,0 C9.17816263,0 0,9.17816263 0,20.5 C0,31.8218374 9.17816263,41 20.5,41 Z M14.125,26 C13.6093724,26 13.1679706,25.8164081 12.8007812,25.4492188 C12.4335919,25.0820294 12.25,24.6406276 12.25,24.125 L12.25,15.875 C12.25,15.3593724 12.4335919,14.9179706 12.8007812,14.5507812 C13.1679706,14.1835919 13.6093724,14 14.125,14 L26.875,14 C27.3906276,14 27.8320294,14.1835919 28.1992188,14.5507812 C28.5664081,14.9179706 28.75,15.3593724 28.75,15.875 L28.75,24.125 C28.75,24.6406276 28.5664081,25.0820294 28.1992188,25.4492188 C27.8320294,25.8164081 27.3906276,26 26.875,26 L14.125,26 Z M13.75,15.875 L13.75,24.125 C13.75,24.226563 13.787109,24.3144528 13.8613281,24.3886719 C13.9355472,24.462891 14.023437,24.5 14.125,24.5 L26.875,24.5 C26.976563,24.5 27.0644528,24.462891 27.1386719,24.3886719 C27.212891,24.3144528 27.25,24.226563 27.25,24.125 L27.25,15.875 C27.25,15.773437 27.212891,15.6855472 27.1386719,15.6113281 C27.0644528,15.537109 26.976563,15.5 26.875,15.5 L14.125,15.5 C14.023437,15.5 13.9355472,15.537109 13.8613281,15.6113281 C13.787109,15.6855472 13.75,15.773437 13.75,15.875 Z M9.25,26.75 L31.75,26.75 L31.75,27.875 C31.75,28.1875016 31.5664081,28.4531239 31.1992188,28.671875 C30.8320294,28.8906261 30.3906276,29 29.875,29 L11.125,29 C10.6093724,29 10.1679706,28.8906261 9.80078125,28.671875 C9.43359191,28.4531239 9.25,28.1875016 9.25,27.875 L9.25,26.75 Z M21.4375,27.875 C21.5625006,27.875 21.625,27.8125006 21.625,27.6875 C21.625,27.5624994 21.5625006,27.5 21.4375,27.5 L19.5625,27.5 C19.4374994,27.5 19.375,27.5624994 19.375,27.6875 C19.375,27.8125006 19.4374994,27.875 19.5625,27.875 L21.4375,27.875 Z"></path>
            </g>
        </g>
    </symbol>

</svg>
